<svg xmlns="http://www.w3.org/2000/svg"
  xmlns:xlink="http://www.w3.org/1999/xlink" xml:space="preserve" version="1.1" viewBox="-20 -20 370 380" style="background-color: #303633">
  <path fill="#ffba08" d="M59.74 3.35l213.86 0c15.51,0 29.61,6.34 39.83,16.56 10.21,10.22 16.56,24.31 16.56,39.83l0 213.86c0,15.51 -6.34,29.61 -16.56,39.83 -10.22,10.21 -24.31,16.56 -39.83,16.56l-213.86 0c-15.52,0 -29.61,-6.34 -39.83,-16.56 -10.21,-10.22 -16.56,-24.31 -16.56,-39.83l0 -213.86c0,-15.52 6.34,-29.61 16.56,-39.83 10.22,-10.21 24.31,-16.56 39.83,-16.56zm-13.87 115.1c-4.23,0 -7.65,-3.43 -7.65,-7.65 0,-4.23 3.43,-7.65 7.65,-7.65l57.29 0 0 -57.29c0,-4.22 3.43,-7.65 7.65,-7.65 4.22,0 7.65,3.43 7.65,7.65l0 57.29 96.42 0 0 -57.29c0,-4.22 3.43,-7.65 7.65,-7.65 4.23,0 7.65,3.43 7.65,7.65l0 57.29 57.29 0c4.22,0 7.65,3.43 7.65,7.65 0,4.22 -3.43,7.65 -7.65,7.65l-57.29 0 0 96.42 57.29 0c4.22,0 7.65,3.43 7.65,7.65 0,4.23 -3.43,7.65 -7.65,7.65l-57.29 0 0 57.29c0,4.22 -3.43,7.65 -7.65,7.65 -4.22,0 -7.65,-3.43 -7.65,-7.65l0 -57.29 -96.42 0 0 57.29c0,4.22 -3.43,7.65 -7.65,7.65 -4.23,0 -7.65,-3.43 -7.65,-7.65l0 -57.29 -57.29 0c-4.23,0 -7.65,-3.43 -7.65,-7.65 0,-4.22 3.43,-7.65 7.65,-7.65l57.29 0 0 -96.42 -57.29 0zm169.01 0l-96.42 0 0 96.42 96.42 0 0 -96.42zm58.72 -99.8l-213.86 0c-11.29,0 -21.56,4.63 -29,12.07 -7.44,7.45 -12.07,17.72 -12.07,29l0 213.86c0,11.29 4.63,21.56 12.07,29 7.45,7.44 17.72,12.07 29,12.07l213.86 0c11.29,0 21.56,-4.63 29,-12.07 7.44,-7.45 12.07,-17.72 12.07,-29l0 -213.86c0,-11.29 -4.63,-21.56 -12.07,-29 -7.45,-7.44 -17.72,-12.07 -29,-12.07z"/>
</svg>